<?xml version="1.0" encoding="UTF-8" standalone="no"?>
<!-- Created with Inkscape (http://www.inkscape.org/) -->
<svg
   xmlns:dc="http://purl.org/dc/elements/1.1/"
   xmlns:cc="http://creativecommons.org/ns#"
   xmlns:rdf="http://www.w3.org/1999/02/22-rdf-syntax-ns#"
   xmlns:svg="http://www.w3.org/2000/svg"
   xmlns="http://www.w3.org/2000/svg"
   xmlns:xlink="http://www.w3.org/1999/xlink"
   xmlns:sodipodi="http://sodipodi.sourceforge.net/DTD/sodipodi-0.dtd"
   xmlns:inkscape="http://www.inkscape.org/namespaces/inkscape"
   width="732"
   height="507"
   id="svg2"
   sodipodi:version="0.32"
   inkscape:version="0.46"
   version="1.0"
   sodipodi:docname="layout.svg"
   inkscape:output_extension="org.inkscape.output.svg.inkscape">
  <defs
     id="defs4">
    <linearGradient
       id="linearGradient4085">
      <stop
         style="stop-color:#717171;stop-opacity:1;"
         offset="0"
         id="stop4087" />
      <stop
         style="stop-color:#ffffff;stop-opacity:1;"
         offset="1"
         id="stop4089" />
    </linearGradient>
    <linearGradient
       id="linearGradient3441">
      <stop
         style="stop-color:#858585;stop-opacity:1;"
         offset="0"
         id="stop3443" />
      <stop
         style="stop-color:#252525;stop-opacity:1;"
         offset="1"
         id="stop3445" />
    </linearGradient>
    <inkscape:perspective
       sodipodi:type="inkscape:persp3d"
       inkscape:vp_x="0 : 526.18109 : 1"
       inkscape:vp_y="0 : 1000 : 0"
       inkscape:vp_z="744.09448 : 526.18109 : 1"
       inkscape:persp3d-origin="372.04724 : 350.78739 : 1"
       id="perspective10" />
    <filter
       id="filter3194"
       inkscape:collect="always">
      <feGaussianBlur
         id="feGaussianBlur3196"
         stdDeviation="0.85264072"
         inkscape:collect="always" />
    </filter>
    <radialGradient
       r="254.78572"
       fy="392.39993"
       fx="220.12259"
       cy="392.39993"
       cx="220.12259"
       gradientTransform="matrix(1.1509077,0.5710642,-0.4515342,0.9195676,130.5254,-104.51354)"
       gradientUnits="userSpaceOnUse"
       id="radialGradient3229"
       xlink:href="#linearGradient3167"
       inkscape:collect="always" />
    <linearGradient
       gradientTransform="translate(-0.1713688,-0.1142458)"
       gradientUnits="userSpaceOnUse"
       y2="24.87068"
       x2="35.012539"
       y1="2.4574327"
       x1="18.36828"
       id="linearGradient3172"
       xlink:href="#linearGradient3189"
       inkscape:collect="always" />
    <inkscape:perspective
       id="perspective4580"
       inkscape:persp3d-origin="372.04724 : 350.78739 : 1"
       inkscape:vp_z="744.09448 : 526.18109 : 1"
       inkscape:vp_y="0 : 1000 : 0"
       inkscape:vp_x="0 : 526.18109 : 1"
       sodipodi:type="inkscape:persp3d" />
    <linearGradient
       id="linearGradient3167">
      <stop
         id="stop3169"
         offset="0"
         style="stop-color:#ffffff;stop-opacity:1;" />
      <stop
         id="stop3171"
         offset="1"
         style="stop-color:#000000;stop-opacity:0.3125;" />
    </linearGradient>
    <marker
       style="overflow:visible"
       id="Arrow1Lstart"
       refX="0"
       refY="0"
       orient="auto"
       inkscape:stockid="Arrow1Lstart">
      <path
         transform="matrix(0.8,0,0,0.8,10,0)"
         style="fill-rule:evenodd;stroke:#000000;stroke-width:1pt;marker-start:none"
         d="M 0,0 L 5,-5 L -12.5,0 L 5,5 L 0,0 z"
         id="path4575" />
    </marker>
    <linearGradient
       id="linearGradient3166">
      <stop
         id="stop3168"
         offset="0"
         style="stop-color:#ffffff;stop-opacity:1;" />
      <stop
         id="stop3170"
         offset="1"
         style="stop-color:#ffffff;stop-opacity:0.19642857;" />
    </linearGradient>
    <linearGradient
       id="linearGradient3189">
      <stop
         style="stop-color:#ffffff;stop-opacity:0.5625;"
         offset="0"
         id="stop3191" />
      <stop
         style="stop-color:#ffffff;stop-opacity:0;"
         offset="1"
         id="stop3193" />
    </linearGradient>
    <linearGradient
       inkscape:collect="always"
       xlink:href="#linearGradient4085"
       id="linearGradient2698"
       gradientUnits="userSpaceOnUse"
       gradientTransform="matrix(1.0869567,0,0,1.0869565,-37.652608,-32.775895)"
       spreadMethod="reflect"
       x1="75.280579"
       y1="42.151661"
       x2="75.280579"
       y2="94.783379" />
    <linearGradient
       inkscape:collect="always"
       xlink:href="#linearGradient3441"
       id="linearGradient2700"
       gradientUnits="userSpaceOnUse"
       gradientTransform="matrix(1.0869567,0,0,1.0869565,-37.652608,-32.775895)"
       spreadMethod="reflect"
       x1="98.280579"
       y1="49.935371"
       x2="98.280579"
       y2="94.783379" />
    <pattern
       patternUnits="userSpaceOnUse"
       width="730.03004"
       height="16.963779"
       patternTransform="translate(-755.95412,36.654698)"
       id="pattern2702">
      <path
         id="path3209"
         d="M 0.4812912,0.4812912 L 729.54875,0.4812912"
         style="fill:none;fill-rule:evenodd;stroke:#d9d9d9;stroke-width:0.96258241px;stroke-linecap:butt;stroke-linejoin:miter;stroke-opacity:1" />
      <path
         id="path3211"
         d="M 0.4812912,4.4815892 L 729.54875,4.4815892"
         style="fill:none;fill-rule:evenodd;stroke:#d9d9d9;stroke-width:0.96258241px;stroke-linecap:butt;stroke-linejoin:miter;stroke-opacity:1" />
      <path
         style="fill:none;fill-rule:evenodd;stroke:#d9d9d9;stroke-width:0.96258241px;stroke-linecap:butt;stroke-linejoin:miter;stroke-opacity:1"
         d="M 0.4812912,8.4818902 L 729.54875,8.4818902"
         id="path3213" />
      <path
         id="path3215"
         d="M 0.4812912,12.482188 L 729.54875,12.482188"
         style="fill:none;fill-rule:evenodd;stroke:#d9d9d9;stroke-width:0.96258241px;stroke-linecap:butt;stroke-linejoin:miter;stroke-opacity:1" />
      <path
         style="fill:none;fill-rule:evenodd;stroke:#d9d9d9;stroke-width:0.96258241px;stroke-linecap:butt;stroke-linejoin:miter;stroke-opacity:1"
         d="M 0.4812912,16.482488 L 729.54875,16.482488"
         id="path3217" />
    </pattern>
    <pattern
       patternUnits="userSpaceOnUse"
       width="730.03004"
       height="0.96258241"
       patternTransform="translate(-755.95412,-3.3482948)"
       id="pattern4220">
      <path
         style="fill:none;fill-rule:evenodd;stroke:#d9d9d9;stroke-width:0.96258241px;stroke-linecap:butt;stroke-linejoin:miter;stroke-opacity:1"
         d="M 0.4812912,0.4812912 L 729.54875,0.4812912"
         id="path3189" />
    </pattern>
  </defs>
  <sodipodi:namedview
     id="base"
     pagecolor="#ffffff"
     bordercolor="#666666"
     borderopacity="1.0"
     inkscape:pageopacity="0.0"
     inkscape:pageshadow="2"
     inkscape:zoom="0.74154355"
     inkscape:cx="215.98806"
     inkscape:cy="244.57364"
     inkscape:document-units="px"
     inkscape:current-layer="layer3"
     showgrid="false"
     inkscape:window-width="1440"
     inkscape:window-height="813"
     inkscape:window-x="0"
     inkscape:window-y="31" />
  <metadata
     id="metadata7">
    <rdf:RDF>
      <cc:Work
         rdf:about="">
        <dc:format>image/svg+xml</dc:format>
        <dc:type
           rdf:resource="http://purl.org/dc/dcmitype/StillImage" />
      </cc:Work>
    </rdf:RDF>
  </metadata>
  <g
     inkscape:groupmode="layer"
     id="layer2"
     inkscape:label="fundo"
     style="display:inline">
    <rect
       style="fill:url(#pattern4220);fill-opacity:1;stroke:#000000;stroke-width:1.075;stroke-opacity:1;stroke-miterlimit:4;stroke-dasharray:none"
       id="rect2403"
       width="730.26581"
       height="504.87549"
       x="1.0473893"
       y="1.4558933"
       ry="13.477095" />
  </g>
  <g
     inkscape:groupmode="layer"
     id="layer3"
     inkscape:label="board"
     style="display:inline">
    <rect
       style="fill:url(#linearGradient2698);fill-opacity:1;stroke:url(#linearGradient2700);stroke-width:0.92299998;stroke-miterlimit:4;stroke-dasharray:none;stroke-opacity:1"
       id="rect3437"
       width="49.077225"
       height="49.077225"
       x="44.635494"
       y="45.710922"
       ry="3.1835122"
       inkscape:tile-cx="-447.31612"
       inkscape:tile-cy="276.57592"
       inkscape:tile-w="49.077225"
       inkscape:tile-h="49.077225"
       inkscape:tile-x0="-471.85474"
       inkscape:tile-y0="252.03731" />
    <g
       id="g4590"
       inkscape:label="Camada 1"
       transform="translate(-158.32654,117.72292)">
      <path
         transform="matrix(5.5625896e-2,6.379928e-2,-6.3459816e-2,5.5923453e-2,30.868504,-25.880112)"
         d="M 628.57143,452.36218 A 254.28572,260 0 1 1 119.99998,452.36218 A 254.28572,260 0 1 1 628.57143,452.36218 z"
         sodipodi:ry="260"
         sodipodi:rx="254.28572"
         sodipodi:cy="452.36218"
         sodipodi:cx="374.28571"
         id="path2383"
         style="fill:#000000;fill-opacity:1;fill-rule:evenodd;stroke:#000000;stroke-width:1;stroke-linecap:butt;stroke-linejoin:miter;marker-start:none;stroke-miterlimit:4;stroke-dasharray:none;stroke-dashoffset:0;stroke-opacity:1"
         sodipodi:type="arc" />
      <path
         sodipodi:type="arc"
         style="opacity:1;fill:url(#radialGradient3229);fill-opacity:1;fill-rule:evenodd;stroke:#000000;stroke-width:1;stroke-linecap:butt;stroke-linejoin:miter;marker-start:none;stroke-miterlimit:4;stroke-dasharray:none;stroke-dashoffset:0;stroke-opacity:1"
         id="path4593"
         sodipodi:cx="374.28571"
         sodipodi:cy="452.36218"
         sodipodi:rx="254.28572"
         sodipodi:ry="260"
         d="M 628.57143,452.36218 A 254.28572,260 0 1 1 119.99998,452.36218 A 254.28572,260 0 1 1 628.57143,452.36218 z"
         transform="matrix(5.5625896e-2,6.379928e-2,-6.3459816e-2,5.5923453e-2,30.868504,-25.880112)" />
      <path
         transform="matrix(0.9574656,0,0,0.9574656,1.0351742,1.2637949)"
         id="path4595"
         d="M 23.544946,0.17307693 C 18.099122,0.13485727 12.579856,2.0503283 8.1209387,5.9797126 C 3.8804159,9.716639 1.3115151,14.647266 0.48881011,19.794355 C 4.3627696,23.93498 11.563203,26.719676 19.804626,26.719675 C 32.139814,26.719675 42.152909,20.483209 42.152909,12.797041 C 42.152909,11.668031 41.93533,10.569858 41.527687,9.5185207 C 41.095529,8.9069279 40.627911,8.313983 40.125755,7.7380407 C 35.793502,2.7692281 29.716882,0.21639143 23.544946,0.17307693 z"
         style="opacity:1;fill:url(#linearGradient3172);fill-opacity:1;fill-rule:evenodd;stroke:none;stroke-width:1px;stroke-linecap:butt;stroke-linejoin:miter;stroke-opacity:1;filter:url(#filter3194)" />
    </g>
    <path
       d="M -270.91933,928.69574 L -270.91933,1435.6957 M -220.91933,928.69574 L -220.91933,1435.6957 M -170.91933,928.69574 L -170.91933,1435.6957 M -120.91933,928.69574 L -120.91933,1435.6957 M -70.919332,928.69574 L -70.919332,1435.6957 M -20.919332,928.69574 L -20.919332,1435.6957 M 29.080668,928.69574 L 29.080668,1435.6957 M 79.080667,928.69574 L 79.080667,1435.6957 M 129.08067,928.69574 L 129.08067,1435.6957 M 179.08067,928.69574 L 179.08067,1435.6957 M 229.08067,928.69574 L 229.08067,1435.6957 M 279.08067,928.69574 L 279.08067,1435.6957 M 329.08067,928.69574 L 329.08067,1435.6957 M 379.08067,928.69574 L 379.08067,1435.6957 M 429.08067,928.69574 L 429.08067,1435.6957 M -270.91933,928.69574 L 461.08067,928.69574 M -270.91933,978.69574 L 461.08067,978.69574 M -270.91933,1028.6957 L 461.08067,1028.6957 M -270.91933,1078.6957 L 461.08067,1078.6957 M -270.91933,1128.6957 L 461.08067,1128.6957 M -270.91933,1178.6957 L 461.08067,1178.6957 M -270.91933,1228.6957 L 461.08067,1228.6957 M -270.91933,1278.6957 L 461.08067,1278.6957 M -270.91933,1328.6957 L 461.08067,1328.6957 M -270.91933,1378.6957 L 461.08067,1378.6957 M -270.91933,1428.6957 L 461.08067,1428.6957"
       style="fill:none;fill-opacity:0.75;fill-rule:evenodd;stroke:#000000;stroke-linecap:butt;stroke-linejoin:miter;stroke-opacity:1"
       id="path4637" />
    <use
       x="0"
       y="0"
       inkscape:tiled-clone-of="#rect3437"
       xlink:href="#rect3437"
       transform="translate(-1.7604948e-6,49.077225)"
       id="use2552"
       width="732"
       height="507" />
    <use
       x="0"
       y="0"
       inkscape:tiled-clone-of="#rect3437"
       xlink:href="#rect3437"
       transform="translate(-1.7604948e-6,98.154445)"
       id="use2554"
       width="732"
       height="507" />
    <use
       x="0"
       y="0"
       inkscape:tiled-clone-of="#rect3437"
       xlink:href="#rect3437"
       transform="translate(-1.7604948e-6,147.23167)"
       id="use2556"
       width="732"
       height="507" />
    <use
       x="0"
       y="0"
       inkscape:tiled-clone-of="#rect3437"
       xlink:href="#rect3437"
       transform="translate(-1.7604948e-6,196.3089)"
       id="use2558"
       width="732"
       height="507" />
    <use
       x="0"
       y="0"
       inkscape:tiled-clone-of="#rect3437"
       xlink:href="#rect3437"
       transform="translate(-1.7604948e-6,245.38612)"
       id="use2560"
       width="732"
       height="507" />
    <use
       x="0"
       y="0"
       inkscape:tiled-clone-of="#rect3437"
       xlink:href="#rect3437"
       transform="translate(-1.7604948e-6,294.46335)"
       id="use2562"
       width="732"
       height="507" />
    <use
       x="0"
       y="0"
       inkscape:tiled-clone-of="#rect3437"
       xlink:href="#rect3437"
       transform="translate(-1.7604948e-6,343.54057)"
       id="use2564"
       width="732"
       height="507" />
    <use
       x="0"
       y="0"
       inkscape:tiled-clone-of="#rect3437"
       xlink:href="#rect3437"
       transform="translate(49.077228,-4.9886274e-6)"
       id="use2566"
       width="732"
       height="507" />
    <use
       x="0"
       y="0"
       inkscape:tiled-clone-of="#rect3437"
       xlink:href="#rect3437"
       transform="translate(49.077228,49.077225)"
       id="use2568"
       width="732"
       height="507" />
    <use
       x="0"
       y="0"
       inkscape:tiled-clone-of="#rect3437"
       xlink:href="#rect3437"
       transform="translate(49.077228,98.154445)"
       id="use2570"
       width="732"
       height="507" />
    <use
       x="0"
       y="0"
       inkscape:tiled-clone-of="#rect3437"
       xlink:href="#rect3437"
       transform="translate(49.077228,147.23167)"
       id="use2572"
       width="732"
       height="507" />
    <use
       x="0"
       y="0"
       inkscape:tiled-clone-of="#rect3437"
       xlink:href="#rect3437"
       transform="translate(49.077228,196.3089)"
       id="use2574"
       width="732"
       height="507" />
    <use
       x="0"
       y="0"
       inkscape:tiled-clone-of="#rect3437"
       xlink:href="#rect3437"
       transform="translate(49.077228,245.38612)"
       id="use2576"
       width="732"
       height="507" />
    <use
       x="0"
       y="0"
       inkscape:tiled-clone-of="#rect3437"
       xlink:href="#rect3437"
       transform="translate(49.077228,294.46335)"
       id="use2578"
       width="732"
       height="507" />
    <use
       x="0"
       y="0"
       inkscape:tiled-clone-of="#rect3437"
       xlink:href="#rect3437"
       transform="translate(49.077228,343.54057)"
       id="use2580"
       width="732"
       height="507" />
    <use
       x="0"
       y="0"
       inkscape:tiled-clone-of="#rect3437"
       xlink:href="#rect3437"
       transform="translate(98.154448,-4.9886274e-6)"
       id="use2582"
       width="732"
       height="507" />
    <use
       x="0"
       y="0"
       inkscape:tiled-clone-of="#rect3437"
       xlink:href="#rect3437"
       transform="translate(98.154448,49.077225)"
       id="use2584"
       width="732"
       height="507" />
    <use
       x="0"
       y="0"
       inkscape:tiled-clone-of="#rect3437"
       xlink:href="#rect3437"
       transform="translate(98.154448,98.154445)"
       id="use2586"
       width="732"
       height="507" />
    <use
       x="0"
       y="0"
       inkscape:tiled-clone-of="#rect3437"
       xlink:href="#rect3437"
       transform="translate(98.154448,147.23167)"
       id="use2588"
       width="732"
       height="507" />
    <use
       x="0"
       y="0"
       inkscape:tiled-clone-of="#rect3437"
       xlink:href="#rect3437"
       transform="translate(98.154448,196.3089)"
       id="use2590"
       width="732"
       height="507" />
    <use
       x="0"
       y="0"
       inkscape:tiled-clone-of="#rect3437"
       xlink:href="#rect3437"
       transform="translate(98.154448,245.38612)"
       id="use2592"
       width="732"
       height="507" />
    <use
       x="0"
       y="0"
       inkscape:tiled-clone-of="#rect3437"
       xlink:href="#rect3437"
       transform="translate(98.154448,294.46335)"
       id="use2594"
       width="732"
       height="507" />
    <use
       x="0"
       y="0"
       inkscape:tiled-clone-of="#rect3437"
       xlink:href="#rect3437"
       transform="translate(98.154448,343.54057)"
       id="use2596"
       width="732"
       height="507" />
    <use
       x="0"
       y="0"
       inkscape:tiled-clone-of="#rect3437"
       xlink:href="#rect3437"
       transform="translate(147.23167,-4.9886274e-6)"
       id="use2598"
       width="732"
       height="507" />
    <use
       x="0"
       y="0"
       inkscape:tiled-clone-of="#rect3437"
       xlink:href="#rect3437"
       transform="translate(147.23167,49.077225)"
       id="use2600"
       width="732"
       height="507" />
    <use
       x="0"
       y="0"
       inkscape:tiled-clone-of="#rect3437"
       xlink:href="#rect3437"
       transform="translate(147.23167,98.154445)"
       id="use2602"
       width="732"
       height="507" />
    <use
       x="0"
       y="0"
       inkscape:tiled-clone-of="#rect3437"
       xlink:href="#rect3437"
       transform="translate(147.23167,147.23167)"
       id="use2604"
       width="732"
       height="507" />
    <use
       x="0"
       y="0"
       inkscape:tiled-clone-of="#rect3437"
       xlink:href="#rect3437"
       transform="translate(147.23167,196.3089)"
       id="use2606"
       width="732"
       height="507" />
    <use
       x="0"
       y="0"
       inkscape:tiled-clone-of="#rect3437"
       xlink:href="#rect3437"
       transform="translate(147.23167,245.38612)"
       id="use2608"
       width="732"
       height="507" />
    <use
       x="0"
       y="0"
       inkscape:tiled-clone-of="#rect3437"
       xlink:href="#rect3437"
       transform="translate(147.23167,294.46335)"
       id="use2610"
       width="732"
       height="507" />
    <use
       x="0"
       y="0"
       inkscape:tiled-clone-of="#rect3437"
       xlink:href="#rect3437"
       transform="translate(147.23167,343.54057)"
       id="use2612"
       width="732"
       height="507" />
    <use
       x="0"
       y="0"
       inkscape:tiled-clone-of="#rect3437"
       xlink:href="#rect3437"
       transform="translate(196.3089,-4.9886274e-6)"
       id="use2614"
       width="732"
       height="507" />
    <use
       x="0"
       y="0"
       inkscape:tiled-clone-of="#rect3437"
       xlink:href="#rect3437"
       transform="translate(196.3089,49.077225)"
       id="use2616"
       width="732"
       height="507" />
    <use
       x="0"
       y="0"
       inkscape:tiled-clone-of="#rect3437"
       xlink:href="#rect3437"
       transform="translate(196.3089,98.154445)"
       id="use2618"
       width="732"
       height="507" />
    <use
       x="0"
       y="0"
       inkscape:tiled-clone-of="#rect3437"
       xlink:href="#rect3437"
       transform="translate(196.3089,147.23167)"
       id="use2620"
       width="732"
       height="507" />
    <use
       x="0"
       y="0"
       inkscape:tiled-clone-of="#rect3437"
       xlink:href="#rect3437"
       transform="translate(196.3089,196.3089)"
       id="use2622"
       width="732"
       height="507" />
    <use
       x="0"
       y="0"
       inkscape:tiled-clone-of="#rect3437"
       xlink:href="#rect3437"
       transform="translate(196.3089,245.38612)"
       id="use2624"
       width="732"
       height="507" />
    <use
       x="0"
       y="0"
       inkscape:tiled-clone-of="#rect3437"
       xlink:href="#rect3437"
       transform="translate(196.3089,294.46335)"
       id="use2626"
       width="732"
       height="507" />
    <use
       x="0"
       y="0"
       inkscape:tiled-clone-of="#rect3437"
       xlink:href="#rect3437"
       transform="translate(196.3089,343.54057)"
       id="use2628"
       width="732"
       height="507" />
    <use
       x="0"
       y="0"
       inkscape:tiled-clone-of="#rect3437"
       xlink:href="#rect3437"
       transform="translate(245.38612,-4.9886274e-6)"
       id="use2630"
       width="732"
       height="507" />
    <use
       x="0"
       y="0"
       inkscape:tiled-clone-of="#rect3437"
       xlink:href="#rect3437"
       transform="translate(245.38612,49.077225)"
       id="use2632"
       width="732"
       height="507" />
    <use
       x="0"
       y="0"
       inkscape:tiled-clone-of="#rect3437"
       xlink:href="#rect3437"
       transform="translate(245.38612,98.154445)"
       id="use2634"
       width="732"
       height="507" />
    <use
       x="0"
       y="0"
       inkscape:tiled-clone-of="#rect3437"
       xlink:href="#rect3437"
       transform="translate(245.38612,147.23167)"
       id="use2636"
       width="732"
       height="507" />
    <use
       x="0"
       y="0"
       inkscape:tiled-clone-of="#rect3437"
       xlink:href="#rect3437"
       transform="translate(245.38612,196.3089)"
       id="use2638"
       width="732"
       height="507" />
    <use
       x="0"
       y="0"
       inkscape:tiled-clone-of="#rect3437"
       xlink:href="#rect3437"
       transform="translate(245.38612,245.38612)"
       id="use2640"
       width="732"
       height="507" />
    <use
       x="0"
       y="0"
       inkscape:tiled-clone-of="#rect3437"
       xlink:href="#rect3437"
       transform="translate(245.38612,294.46335)"
       id="use2642"
       width="732"
       height="507" />
    <use
       x="0"
       y="0"
       inkscape:tiled-clone-of="#rect3437"
       xlink:href="#rect3437"
       transform="translate(245.38612,343.54057)"
       id="use2644"
       width="732"
       height="507" />
    <use
       x="0"
       y="0"
       inkscape:tiled-clone-of="#rect3437"
       xlink:href="#rect3437"
       transform="translate(294.46335,-4.9886274e-6)"
       id="use2646"
       width="732"
       height="507" />
    <use
       x="0"
       y="0"
       inkscape:tiled-clone-of="#rect3437"
       xlink:href="#rect3437"
       transform="translate(294.46335,49.077225)"
       id="use2648"
       width="732"
       height="507" />
    <use
       x="0"
       y="0"
       inkscape:tiled-clone-of="#rect3437"
       xlink:href="#rect3437"
       transform="translate(294.46335,98.154445)"
       id="use2650"
       width="732"
       height="507" />
    <use
       x="0"
       y="0"
       inkscape:tiled-clone-of="#rect3437"
       xlink:href="#rect3437"
       transform="translate(294.46335,147.23167)"
       id="use2652"
       width="732"
       height="507" />
    <use
       x="0"
       y="0"
       inkscape:tiled-clone-of="#rect3437"
       xlink:href="#rect3437"
       transform="translate(294.46335,196.3089)"
       id="use2654"
       width="732"
       height="507" />
    <use
       x="0"
       y="0"
       inkscape:tiled-clone-of="#rect3437"
       xlink:href="#rect3437"
       transform="translate(294.46335,245.38612)"
       id="use2656"
       width="732"
       height="507" />
    <use
       x="0"
       y="0"
       inkscape:tiled-clone-of="#rect3437"
       xlink:href="#rect3437"
       transform="translate(294.46335,294.46335)"
       id="use2658"
       width="732"
       height="507" />
    <use
       x="0"
       y="0"
       inkscape:tiled-clone-of="#rect3437"
       xlink:href="#rect3437"
       transform="translate(294.46335,343.54057)"
       id="use2660"
       width="732"
       height="507" />
    <use
       x="0"
       y="0"
       inkscape:tiled-clone-of="#rect3437"
       xlink:href="#rect3437"
       transform="translate(343.54057,-4.9886274e-6)"
       id="use2662"
       width="732"
       height="507" />
    <use
       x="0"
       y="0"
       inkscape:tiled-clone-of="#rect3437"
       xlink:href="#rect3437"
       transform="translate(343.54057,49.077225)"
       id="use2664"
       width="732"
       height="507" />
    <use
       x="0"
       y="0"
       inkscape:tiled-clone-of="#rect3437"
       xlink:href="#rect3437"
       transform="translate(343.54057,98.154445)"
       id="use2666"
       width="732"
       height="507" />
    <use
       x="0"
       y="0"
       inkscape:tiled-clone-of="#rect3437"
       xlink:href="#rect3437"
       transform="translate(343.54057,147.23167)"
       id="use2668"
       width="732"
       height="507" />
    <use
       x="0"
       y="0"
       inkscape:tiled-clone-of="#rect3437"
       xlink:href="#rect3437"
       transform="translate(343.54057,196.3089)"
       id="use2670"
       width="732"
       height="507" />
    <use
       x="0"
       y="0"
       inkscape:tiled-clone-of="#rect3437"
       xlink:href="#rect3437"
       transform="translate(343.54057,245.38612)"
       id="use2672"
       width="732"
       height="507" />
    <use
       x="0"
       y="0"
       inkscape:tiled-clone-of="#rect3437"
       xlink:href="#rect3437"
       transform="translate(343.54057,294.46335)"
       id="use2674"
       width="732"
       height="507" />
    <use
       x="0"
       y="0"
       inkscape:tiled-clone-of="#rect3437"
       xlink:href="#rect3437"
       transform="translate(343.54057,343.54057)"
       id="use2676"
       width="732"
       height="507" />
  </g>
</svg>
