<?xml version="1.0" encoding="UTF-8" standalone="no"?>
<!-- Created with Inkscape (http://www.inkscape.org/) -->
<svg
   xmlns:dc="http://purl.org/dc/elements/1.1/"
   xmlns:cc="http://creativecommons.org/ns#"
   xmlns:rdf="http://www.w3.org/1999/02/22-rdf-syntax-ns#"
   xmlns:svg="http://www.w3.org/2000/svg"
   xmlns="http://www.w3.org/2000/svg"
   xmlns:sodipodi="http://sodipodi.sourceforge.net/DTD/sodipodi-0.dtd"
   xmlns:inkscape="http://www.inkscape.org/namespaces/inkscape"
   width="46"
   height="46"
   id="svg2"
   sodipodi:version="0.32"
   inkscape:version="0.46"
   version="1.0"
   sodipodi:docname="humanNotPlaying.svg"
   inkscape:output_extension="org.inkscape.output.svg.inkscape">
  <defs
     id="defs4">
    <marker
       inkscape:stockid="Arrow2Lstart"
       orient="auto"
       refY="0.0"
       refX="0.0"
       id="Arrow2Lstart"
       style="overflow:visible">
      <path
         id="path4212"
         style="font-size:12.0;fill-rule:evenodd;stroke-width:0.62500000;stroke-linejoin:round"
         d="M 8.7185878,4.0337352 L -2.2072895,0.016013256 L 8.7185884,-4.0017078 C 6.9730900,-1.6296469 6.9831476,1.6157441 8.7185878,4.0337352 z "
         transform="scale(1.1) translate(1,0)" />
    </marker>
    <marker
       inkscape:stockid="Arrow1Lstart"
       orient="auto"
       refY="0.0"
       refX="0.0"
       id="Arrow1Lstart"
       style="overflow:visible">
      <path
         id="path4194"
         d="M 0.0,0.0 L 5.0,-5.0 L -12.5,0.0 L 5.0,5.0 L 0.0,0.0 z "
         style="fill-rule:evenodd;stroke:#000000;stroke-width:1.0pt;marker-start:none"
         transform="scale(0.8) translate(12.5,0)" />
    </marker>
    <linearGradient
       id="linearGradient3186">
      <stop
         style="stop-color:#000000;stop-opacity:1;"
         offset="0"
         id="stop3188" />
      <stop
         style="stop-color:#d1d1d1;stop-opacity:1;"
         offset="1"
         id="stop3190" />
    </linearGradient>
    <linearGradient
       id="linearGradient3178">
      <stop
         style="stop-color:#ffffff;stop-opacity:1;"
         offset="0"
         id="stop3180" />
      <stop
         style="stop-color:#000000;stop-opacity:0.73214287;"
         offset="1"
         id="stop3182" />
    </linearGradient>
    <inkscape:perspective
       sodipodi:type="inkscape:persp3d"
       inkscape:vp_x="0 : 526.18109 : 1"
       inkscape:vp_y="0 : 1000 : 0"
       inkscape:vp_z="744.09448 : 526.18109 : 1"
       inkscape:persp3d-origin="372.04724 : 350.78739 : 1"
       id="perspective10" />
  </defs>
  <sodipodi:namedview
     id="base"
     pagecolor="#ffffff"
     bordercolor="#666666"
     borderopacity="1.0"
     inkscape:pageopacity="0.0"
     inkscape:pageshadow="2"
     inkscape:zoom="1.872068"
     inkscape:cx="213.04106"
     inkscape:cy="-64.023498"
     inkscape:document-units="px"
     inkscape:current-layer="layer1"
     showgrid="false"
     inkscape:window-width="1430"
     inkscape:window-height="790"
     inkscape:window-x="0"
     inkscape:window-y="31"
     showguides="true"
     inkscape:guide-bbox="true" />
  <metadata
     id="metadata7">
    <rdf:RDF>
      <cc:Work
         rdf:about="">
        <dc:format>image/svg+xml</dc:format>
        <dc:type
           rdf:resource="http://purl.org/dc/dcmitype/StillImage" />
      </cc:Work>
    </rdf:RDF>
  </metadata>
  <g
     inkscape:label="Camada 1"
     inkscape:groupmode="layer"
     id="layer1">
    <text
       xml:space="preserve"
       style="font-size:40px;font-style:normal;font-weight:normal;fill:#000000;fill-opacity:1;stroke:none;stroke-width:1px;stroke-linecap:butt;stroke-linejoin:miter;stroke-opacity:1;font-family:Bitstream Vera Sans"
       x="-23.881647"
       y="6.8606348"
       id="text3170"><tspan
         sodipodi:role="line"
         id="tspan3172"
         x="-23.881647"
         y="6.8606348" /></text>
    <path
       sodipodi:type="arc"
       style="fill:#f4e3d7;fill-opacity:1;stroke:#000000;stroke-width:0.03673154;stroke-miterlimit:4;stroke-dasharray:none;stroke-opacity:1"
       id="path6055"
       sodipodi:cx="17.02878"
       sodipodi:cy="25.494511"
       sodipodi:rx="1.2771585"
       sodipodi:ry="1.2062052"
       d="M 18.305938,25.494511 A 1.2771585,1.2062052 0 1 1 15.751621,25.494511 A 1.2771585,1.2062052 0 1 1 18.305938,25.494511 z"
       transform="matrix(16.453766,0,0,5.1469476,-256.4832,-104.7003)" />
    <path
       sodipodi:type="arc"
       style="fill:#502d16;fill-opacity:1;stroke:none;stroke-width:0.1;stroke-miterlimit:4;stroke-dasharray:none;stroke-opacity:1"
       id="path6059"
       sodipodi:cx="15.245604"
       sodipodi:cy="26.150148"
       sodipodi:rx="4.3558869"
       sodipodi:ry="3.9546866"
       d="M 19.60149,26.150148 A 4.3558869,3.9546866 0 1 1 10.889717,26.150148 A 4.3558869,3.9546866 0 1 1 19.60149,26.150148 z"
       transform="matrix(4.4582326,0,0,4.3175394,-44.754362,-95.179653)" />
    <path
       style="fill:#f4e3d7;fill-rule:evenodd;stroke:#000000;stroke-width:0.33802333;stroke-linecap:butt;stroke-linejoin:miter;stroke-miterlimit:4;stroke-dasharray:none;stroke-opacity:1"
       d="M 6.9809353,15.432388 L 6.9809353,37.066632 C 10.355867,40.731472 15.221485,43.774771 24.10351,45.143416 C 33.125342,43.516657 37.124944,40.493878 40.707214,37.355088 L 39.150617,15.432388 L 6.9809353,15.432388 z"
       id="path6049"
       sodipodi:nodetypes="cccccc" />
    <rect
       style="fill:#000000;fill-opacity:1;stroke:none;stroke-width:0.1;stroke-miterlimit:4;stroke-dasharray:none;stroke-opacity:1"
       id="rect6051"
       width="2.5943294"
       height="15.077239"
       x="16.320518"
       y="18.536522"
       ry="2.8824134" />
    <rect
       ry="2.8824134"
       y="18.536522"
       x="27.2167"
       height="15.077239"
       width="2.5943294"
       id="rect6053"
       style="fill:#000000;fill-opacity:1;stroke:none;stroke-width:0.1;stroke-miterlimit:4;stroke-dasharray:none;stroke-opacity:1" />
    <path
       style="fill:#502d16;fill-rule:evenodd;stroke:#502d16;stroke-width:0.3596622;stroke-linecap:butt;stroke-linejoin:miter;stroke-miterlimit:4;stroke-dasharray:none;stroke-opacity:1"
       d="M 22.09727,19.892644 L 20.421785,18.269507 L 22.09727,16.240588 L 19.304791,15.293762 L 18.885919,18.134248 L 16.233072,15.429021 L 15.814194,18.810555 L 12.044351,15.293762 L 13.161346,19.486859 L 7.2971373,15.429021 L 8.8330037,22.056822 L 5.761278,22.056822 L 5.761278,14.211669 L 40.66724,14.076409 L 41.225733,19.216337 L 37.176647,23.003652 L 39.969119,17.052158 L 35.501159,19.216337 L 35.64078,15.158499 L 30.753946,18.269507 L 30.335072,15.158499 L 26.565234,19.081078 L 27.263354,15.158499 L 22.376516,17.998984 L 22.09727,19.892644 z"
       id="path6063" />
    <path
       style="fill:#ffffff;fill-opacity:0.61764705;stroke:none;stroke-width:0.10000000000000001;stroke-miterlimit:4;stroke-dasharray:none;stroke-opacity:1"
       d="M 23.229225,0.66479176 C 12.509629,0.66479176 3.7917249,8.3021598 3.7917249,17.727292 C 3.7917249,19.805887 4.2358529,21.790682 5.0104749,23.633542 C 8.1868599,25.094061 11.921615,25.977292 15.947975,25.977292 C 27.336986,25.977292 36.604224,19.213367 36.604225,10.883542 C 36.604225,8.2020598 35.626931,5.6915888 33.947975,3.5085418 C 30.872293,1.7102538 27.197166,0.66479176 23.229225,0.66479176 z"
       id="path3224" />
    <g
       id="g3489"
       transform="translate(-53.550407,-6.8106502)"
       style="opacity:0.77153558">
      <path
         sodipodi:type="arc"
         style="fill:#cccccc;fill-opacity:0.94537826000000003;stroke:none;stroke-width:0.03673154000000000;stroke-miterlimit:4;stroke-dasharray:none;stroke-opacity:1"
         id="path3475"
         sodipodi:cx="17.02878"
         sodipodi:cy="25.494511"
         sodipodi:rx="1.2771585"
         sodipodi:ry="1.2062052"
         d="M 18.305938,25.494511 A 1.2771585,1.2062052 0 1 1 15.751621,25.494511 A 1.2771585,1.2062052 0 1 1 18.305938,25.494511 z"
         transform="matrix(16.453766,0,0,5.1469476,-202.93279,-98.156734)" />
      <path
         sodipodi:type="arc"
         style="fill:#cccccc;fill-opacity:0.94537826000000003;stroke:none;stroke-width:0.10000000000000001;stroke-miterlimit:4;stroke-dasharray:none;stroke-opacity:1"
         id="path3477"
         sodipodi:cx="15.245604"
         sodipodi:cy="26.150148"
         sodipodi:rx="4.3558869"
         sodipodi:ry="3.9546866"
         d="M 19.60149,26.150148 A 4.3558869,3.9546866 0 1 1 10.889717,26.150148 A 4.3558869,3.9546866 0 1 1 19.60149,26.150148 z"
         transform="matrix(4.4582326,0,0,4.3175394,8.7960447,-88.636087)" />
      <path
         style="fill:#cccccc;fill-opacity:0.94537826000000003;fill-rule:evenodd;stroke:none;stroke-width:0.33802333000000001;stroke-linecap:butt;stroke-linejoin:miter;stroke-miterlimit:4;stroke-dasharray:none;stroke-opacity:1"
         d="M 60.531342,21.975954 L 60.531342,43.610198 C 63.906274,47.275038 68.771892,50.318337 77.653917,51.686982 C 86.675749,50.060223 90.675351,47.037444 94.257621,43.898654 L 92.701024,21.975954 L 60.531342,21.975954 z"
         id="path3479"
         sodipodi:nodetypes="cccccc" />
      <rect
         style="fill:#cccccc;fill-opacity:0.94537826000000003;stroke:none;stroke-width:0.10000000000000001;stroke-miterlimit:4;stroke-dasharray:none;stroke-opacity:1"
         id="rect3481"
         width="2.5943294"
         height="15.077239"
         x="69.870926"
         y="25.080088"
         ry="2.8824134" />
      <rect
         ry="2.8824134"
         y="25.080088"
         x="80.767105"
         height="15.077239"
         width="2.5943294"
         id="rect3483"
         style="fill:#cccccc;fill-opacity:0.94537826000000003;stroke:none;stroke-width:0.10000000000000001;stroke-miterlimit:4;stroke-dasharray:none;stroke-opacity:1" />
      <path
         style="fill:#cccccc;fill-opacity:0.94537826000000003;fill-rule:evenodd;stroke:none;stroke-width:0.35966219999999999;stroke-linecap:butt;stroke-linejoin:miter;stroke-miterlimit:4;stroke-dasharray:none;stroke-opacity:1"
         d="M 75.647677,26.43621 L 73.972192,24.813073 L 75.647677,22.784154 L 72.855198,21.837328 L 72.436326,24.677814 L 69.783479,21.972587 L 69.364601,25.354121 L 65.594758,21.837328 L 66.711753,26.030425 L 60.847544,21.972587 L 62.38341,28.600388 L 59.311685,28.600388 L 59.311685,20.755235 L 94.217647,20.619975 L 94.77614,25.759903 L 90.727054,29.547218 L 93.519526,23.595724 L 89.051566,25.759903 L 89.191187,21.702065 L 84.304353,24.813073 L 83.885479,21.702065 L 80.115641,25.624644 L 80.813761,21.702065 L 75.926923,24.54255 L 75.647677,26.43621 z"
         id="path3485" />
      <path
         style="fill:#cccccc;fill-opacity:0.94537826000000003;stroke:none;stroke-width:0.10000000000000001;stroke-miterlimit:4;stroke-dasharray:none;stroke-opacity:1"
         d="M 76.779632,7.2083577 C 66.060036,7.2083577 57.342132,14.845726 57.342132,24.270858 C 57.342132,26.349453 57.78626,28.334248 58.560882,30.177108 C 61.737267,31.637627 65.472022,32.520858 69.498382,32.520858 C 80.887393,32.520858 90.154631,25.756933 90.154632,17.427108 C 90.154632,14.745626 89.177338,12.235155 87.498382,10.052108 C 84.4227,8.2538197 80.747573,7.2083577 76.779632,7.2083577 z"
         id="path3487" />
    </g>
  </g>
</svg>
